<?xml version="1.0" encoding="UTF-8" standalone="no"?>
<svg
   xmlns:dc="http://purl.org/dc/elements/1.1/"
   xmlns:cc="http://creativecommons.org/ns#"
   xmlns:rdf="http://www.w3.org/1999/02/22-rdf-syntax-ns#"
   xmlns:svg="http://www.w3.org/2000/svg"
   xmlns="http://www.w3.org/2000/svg"
   xmlns:sodipodi="http://sodipodi.sourceforge.net/DTD/sodipodi-0.dtd"
   xmlns:inkscape="http://www.inkscape.org/namespaces/inkscape"
   sodipodi:docname="2020.05.07_sequencing_imaging_figure.svg"
   inkscape:version="1.0 (4035a4f, 2020-05-01)"
   id="svg8"
   version="1.1"
   viewBox="0 0 210 297"
   height="297mm"
   width="210mm">
  <defs
     id="defs2">
    <inkscape:path-effect
       lpeversion="1"
       is_visible="true"
       id="path-effect911"
       effect="spiro" />
    <inkscape:path-effect
       lpeversion="1"
       is_visible="true"
       id="path-effect907"
       effect="spiro" />
    <inkscape:path-effect
       lpeversion="1"
       is_visible="true"
       id="path-effect903"
       effect="spiro" />
    <inkscape:path-effect
       lpeversion="1"
       is_visible="true"
       id="path-effect899"
       effect="spiro" />
    <inkscape:path-effect
       lpeversion="1"
       is_visible="true"
       id="path-effect895"
       effect="spiro" />
    <inkscape:path-effect
       lpeversion="1"
       is_visible="true"
       id="path-effect891"
       effect="spiro" />
    <inkscape:path-effect
       lpeversion="1"
       is_visible="true"
       id="path-effect887"
       effect="spiro" />
    <inkscape:path-effect
       lpeversion="1"
       is_visible="true"
       id="path-effect883"
       effect="spiro" />
    <inkscape:path-effect
       simplify_just_coalesce="false"
       simplify_individual_paths="false"
       helper_size="0"
       smooth_angles="360"
       threshold="0.0191429"
       steps="1"
       lpeversion="1"
       is_visible="true"
       id="path-effect863"
       effect="simplify" />
    <inkscape:path-effect
       lpeversion="1"
       is_visible="true"
       id="path-effect841"
       effect="spiro" />
    <inkscape:path-effect
       simplify_just_coalesce="false"
       simplify_individual_paths="false"
       helper_size="0"
       smooth_angles="360"
       threshold="0.0191429"
       steps="1"
       lpeversion="1"
       is_visible="true"
       id="path-effect839"
       effect="simplify" />
    <inkscape:path-effect
       simplify_just_coalesce="false"
       simplify_individual_paths="false"
       helper_size="0"
       smooth_angles="360"
       threshold="0.0191429"
       steps="1"
       lpeversion="1"
       is_visible="true"
       id="path-effect835"
       effect="simplify" />
  </defs>
  <sodipodi:namedview
     inkscape:window-maximized="0"
     inkscape:window-y="23"
     inkscape:window-x="30"
     inkscape:window-height="887"
     inkscape:window-width="1352"
     showgrid="false"
     inkscape:document-rotation="0"
     inkscape:current-layer="layer2"
     inkscape:document-units="mm"
     inkscape:cy="485.62403"
     inkscape:cx="427.38887"
     inkscape:zoom="1.3795237"
     inkscape:pageshadow="2"
     inkscape:pageopacity="0.0"
     borderopacity="1.0"
     bordercolor="#666666"
     pagecolor="#ffffff"
     id="base" />
  <metadata
     id="metadata5">
    <rdf:RDF>
      <cc:Work
         rdf:about="">
        <dc:format>image/svg+xml</dc:format>
        <dc:type
           rdf:resource="http://purl.org/dc/dcmitype/StillImage" />
        <dc:title></dc:title>
      </cc:Work>
    </rdf:RDF>
  </metadata>
  <g
     style="display:inline;opacity:1"
     id="layer1"
     inkscape:groupmode="layer"
     inkscape:label="100kb - 1Mb">
    <g
       style="display:inline"
       inkscape:label="Chromatin"
       id="layer2"
       inkscape:groupmode="layer">
      <path
         sodipodi:nodetypes="csssssssssscsssssssssssssssssscsssssssssssssssscsssssssssssssc"
         inkscape:original-d="m 21.157534,94.713723 c 1.580448,-0.175653 4.005271,-0.536529 4.396653,-1.744042 0.869458,-2.682509 -7.515013,-2.489129 -4.867713,-5.522811 0.956937,-1.096614 3.159391,-3.59133 4.651785,-1.749562 0.190945,0.235652 2.574152,1.385102 2.885318,1.555774 0.284808,0.156213 0.719235,0.211818 1.09917,0.193788 1.395187,-0.06623 6.670719,-4.039739 7.223052,-0.290674 0.384185,2.607692 -8.916194,5.699723 -7.223052,7.266854 1.502479,1.390667 6.060514,-0.256456 7.380076,-0.968914 2.308521,-1.246417 3.937568,-3.546465 4.082606,-5.425918 0.152763,-1.979568 -3.659692,-7.288619 3.297482,-6.297947 1.384695,0.19718 1.964256,0.973756 2.198331,1.74405 1.453541,4.783529 -2.713201,5.711988 -3.611538,9.59225 -0.27237,1.176483 0.123261,2.990956 2.826413,2.712957 4.030429,-0.414493 2.96164,-5.421892 3.297492,-6.97618 0.300541,-1.390877 2.599914,-3.893128 5.33879,-3.681875 0.660832,0.05099 0.984523,0.473408 1.256182,0.77513 0.815044,0.905266 1.727254,1.720798 1.727254,2.809854 0,1.834286 -3.849511,9.25363 3.454505,7.75131 2.261711,-0.465197 3.333891,-1.079417 4.396655,-2.325391 0.763564,-0.895209 1.541681,-1.967779 0.942134,-3.003637 -1.63458,-2.824136 -8.241536,-3.774728 -6.594971,-8.041984 0.588171,-1.524312 2.56632,-2.599486 4.867721,-3.197419 2.6539,-0.689515 5.237444,1.099618 5.736685,2.874797 0.658165,2.340182 8.809545,-2.855147 13.389849,-1.291536 5.251609,1.792784 -0.564823,8.131253 -0.847017,11.934447 -0.150173,2.023931 0.429828,1.131591 -3.389666,1.686133 -1.158129,0.168148 -11.558234,-0.833218 -12.690507,-1.240774 -3.342963,-1.203291 9.708625,11.262707 3.803059,10.622337 -8.409406,-0.91187 1.240407,-25.240759 -6.61768,-0.5802 -1.084035,3.40196 1.215063,5.10421 -3.519426,2.98377 -1.038338,-0.45166 -1.39534,4.27605 -3.714797,4.3317 -2.067832,0.0496 -5.593707,-2.37842 -5.595526,-2.41666 -0.121551,-2.55497 0.988191,-3.68359 -0.300576,-6.86451 -1.514368,-3.737752 1.721856,-4.795415 -2.24037,-2.162452 -1.00373,0.667002 -2.883614,1.105912 -3.054822,2.003882 -0.451595,2.36857 1.505313,5.34887 4.492999,6.66569 2.565802,1.13089 0.348791,0.93528 1.630843,2.99212 1.669427,2.67832 -0.995261,-1.33443 1.27535,1.87163 6.4518,9.10985 2.141561,6.57571 -1.737575,3.02921 -1.326888,-1.2131 -2.440597,-2.39331 -2.781827,-3.01157 -0.970913,-1.75918 2.253738,-3.07284 1.361133,-4.1744 -0.130731,-0.16134 -7.309722,0.22033 -7.497437,0.10449 -0.873094,-0.53874 -3.784549,-3.48438 -4.803484,-3.88448 -2.742769,-1.07701 -7.861901,-2.549 -10.584781,-2.80103 -2.306473,-0.21348 -3.724562,0.93014 -4.867712,1.93783 -2.446373,2.15648 -4.350094,6.66145 -1.727253,9.20469 1.681366,1.63035 4.40068,-2.47327 5.265954,-3.5406 1.226757,-0.48011 5.980529,-2.18578 7.583821,-1.8148 1.947379,0.45061 -0.04544,8.64939 0.811232,10.10308 0.456024,0.77382 2.893035,-2.72999 3.807266,-2.16587 1.597805,0.98594 4.824437,-3.32814 5.746135,-2.51231 1.653539,1.46362 0.732906,7.67291 4.107612,7.00357 3.675215,-0.72894 6.806808,-4.01357 10.646839,-4.33668 2.378228,-0.2001 3.700474,2.43444 6.625709,1.04237 4.250095,-2.02255 -6.222385,-8.3021 1.313028,-9.69703 3.762395,-0.69648 5.978895,1.50218 7.656645,2.53743 1.153842,0.71199 1.975059,-1.05747 3.477245,-0.76477 0.901215,0.17561 1.79832,4.69911 2.784324,4.53318 3.286724,-0.55312 -2.373,-8.92025 3.140461,-6.97619 3.896984,1.37408 2.634099,8.57356 -1.256187,9.88293 -1.292592,0.43505 -22.554559,0.59371 -13.97506,3.68187"
         inkscape:path-effect="#path-effect911"
         id="path909"
         d="m 21.157534,94.713723 c 0.26254,0.525647 0.727442,0.94698 1.276306,1.156695 0.548864,0.209715 1.17627,0.205742 1.722434,-0.01091 0.546164,-0.216649 1.005693,-0.643836 1.261555,-1.172766 0.255862,-0.52893 0.305531,-1.15438 0.136358,-1.717063 -0.183822,-0.611407 -0.608717,-1.126315 -1.099357,-1.534827 -0.49064,-0.408511 -1.050023,-0.724264 -1.592687,-1.060606 -0.542663,-0.336341 -1.078318,-0.701315 -1.49469,-1.185303 -0.416372,-0.483987 -0.706531,-1.104144 -0.680979,-1.742075 0.01967,-0.491122 0.228167,-0.967622 0.554277,-1.335373 0.326109,-0.367751 0.765154,-0.628467 1.236543,-0.767683 0.942777,-0.278432 1.974701,-0.07182 2.860965,0.353494 0.986967,0.473635 1.846589,1.210122 2.885318,1.555774 0.354391,0.117929 0.725716,0.188079 1.09917,0.193788 0.653431,0.01 1.294631,-0.176194 1.904359,-0.411361 0.609728,-0.235168 1.200211,-0.521018 1.82123,-0.724506 0.621019,-0.203487 1.285183,-0.32317 1.929304,-0.212807 0.32206,0.05518 0.635792,0.168385 0.909836,0.346341 0.274043,0.177955 0.507462,0.421816 0.658323,0.711659 0.221813,0.426158 0.255188,0.938043 0.132284,1.402485 -0.122905,0.464442 -0.394556,0.88209 -0.739321,1.216678 -0.689529,0.669176 -1.634051,0.998173 -2.558059,1.261719 -0.924007,0.263546 -1.879788,0.489536 -2.687189,1.010451 -0.4037,0.260457 -0.765162,0.594937 -1.018265,1.003288 -0.253103,0.408351 -0.393299,0.89354 -0.352502,1.372233 0.03359,0.394107 0.189234,0.774886 0.429438,1.089132 0.240204,0.314246 0.563117,0.562368 0.922473,0.727632 0.718712,0.330529 1.563322,0.322302 2.318683,0.0873 0.755362,-0.234998 1.429777,-0.682046 2.028554,-1.19902 0.598776,-0.516974 1.130206,-1.106071 1.680928,-1.673962 0.796574,-0.821408 1.637329,-1.602264 2.376355,-2.47581 0.739027,-0.873546 1.380367,-1.853276 1.706251,-2.950108 0.368353,-1.23977 0.318964,-2.572722 0.674235,-3.816304 0.177636,-0.621791 0.462474,-1.224533 0.908899,-1.692383 0.446425,-0.467849 1.067681,-0.789808 1.714348,-0.78926 0.499891,4.23e-4 0.992478,0.194156 1.377909,0.512487 0.38543,0.31833 0.665184,0.756387 0.820422,1.231563 0.274115,0.839055 0.161306,1.767828 -0.153676,2.592411 -0.314981,0.824584 -0.82,1.561509 -1.342144,2.273209 -0.522145,0.7117 -1.068819,1.411218 -1.483043,2.190686 -0.414223,0.779469 -0.693182,1.655324 -0.632675,2.535944 0.04986,0.72569 0.340994,1.441937 0.852914,1.958706 0.511921,0.516768 1.248914,0.818203 1.973499,0.754251 0.694836,-0.06133 1.336475,-0.448232 1.793079,-0.975556 0.456604,-0.527325 0.741113,-1.185824 0.913491,-1.861726 0.344757,-1.351805 0.262842,-2.782949 0.590922,-4.138898 0.287108,-1.186613 0.911857,-2.318575 1.8828,-3.058677 0.485472,-0.370051 1.052217,-0.63719 1.651521,-0.753184 0.599305,-0.115994 1.230696,-0.07835 1.804469,0.129986 0.46527,0.168941 0.886357,0.446121 1.256182,0.77513 0.832024,0.740198 1.408709,1.742761 1.727254,2.809854 0.428887,1.43673 0.404864,2.972025 0.758027,4.429219 0.176582,0.728597 0.452025,1.442929 0.897636,2.04581 0.445611,0.602881 1.072884,1.089148 1.798842,1.276281 0.857192,0.220962 1.788445,0.0066 2.546523,-0.45045 0.758077,-0.457078 1.358609,-1.13873 1.850132,-1.874941 0.297424,-0.445487 0.560703,-0.917304 0.736868,-1.423155 0.176166,-0.505851 0.263332,-1.04799 0.205266,-1.580482 -0.09766,-0.895619 -0.600037,-1.707412 -1.235568,-2.345981 -0.635532,-0.638569 -1.402447,-1.127474 -2.157448,-1.619048 -0.755001,-0.491574 -1.513014,-0.998126 -2.120857,-1.663106 -0.607842,-0.664979 -1.059779,-1.513173 -1.081098,-2.413849 -0.01329,-0.561506 0.143078,-1.123578 0.429432,-1.606763 0.286353,-0.483185 0.700371,-0.887443 1.181303,-1.177564 0.961864,-0.580242 2.167548,-0.686933 3.256986,-0.413092 1.0416,0.261817 1.97077,0.841522 2.876631,1.418491 0.905861,0.576969 1.825535,1.167777 2.860054,1.456306 1.104599,0.308074 2.284088,0.252433 3.408141,0.02538 1.124053,-0.227057 2.206479,-0.620101 3.293124,-0.986506 1.086645,-0.366406 2.190812,-0.70929 3.331167,-0.830291 1.140354,-0.121001 2.329455,-0.0084 3.357417,0.499885 1.062101,0.525155 1.902199,1.458627 2.380991,2.54242 0.478791,1.083792 0.605367,2.308918 0.432276,3.481047 -0.346181,2.344258 -1.844776,4.38805 -3.660284,5.91098 -0.981109,0.822999 -2.117128,1.542777 -3.389666,1.686133 -1.181508,0.133101 -2.366114,-0.245331 -3.432265,-0.771638 -1.066152,-0.526306 -2.053213,-1.202135 -3.120192,-1.726762 -1.066979,-0.524627 -2.253292,-0.899401 -3.434158,-0.76072 -0.590433,0.06934 -1.16996,0.269932 -1.654333,0.614608 -0.484374,0.344677 -0.86951,0.837168 -1.049559,1.403738 -0.157826,0.49664 -0.155479,1.036857 -0.03553,1.543979 0.119948,0.507122 0.354038,0.982642 0.6468,1.413745 0.585525,0.862208 1.394194,1.542886 2.140541,2.270352 0.746347,0.727465 1.457829,1.544821 1.763087,2.541341 0.15263,0.49826 0.197001,1.0349 0.08495,1.54382 -0.112049,0.50893 -0.386548,0.98776 -0.79679,1.3091 -0.451333,0.35353 -1.040308,0.49934 -1.613587,0.49335 -0.573279,-0.006 -1.136002,-0.15344 -1.679379,-0.33627 -0.543376,-0.18283 -1.074788,-0.40208 -1.626099,-0.55937 -0.551311,-0.15729 -1.130106,-0.25195 -1.698615,-0.17791 -0.790031,0.10289 -1.511918,0.52842 -2.087896,1.07886 -0.575978,0.55044 -1.020458,1.22245 -1.43153,1.90491 -0.499111,0.82862 -0.958448,1.68464 -1.538341,2.45888 -0.579894,0.77425 -1.295579,1.47309 -2.176456,1.87282 -1.04202,0.47286 -2.283521,0.48573 -3.334296,0.0327 -1.050776,-0.45307 -1.894115,-1.36552 -2.26123,-2.44932 -0.370336,-1.09331 -0.263264,-2.28321 -0.151482,-3.43212 0.111783,-1.1489 0.219712,-2.33856 -0.149094,-3.43239 -0.173523,-0.51465 -0.452884,-0.99702 -0.836225,-1.38176 -0.38334,-0.38473 -0.872659,-0.66892 -1.404145,-0.780692 -0.661378,-0.139088 -1.375762,-9.16e-4 -1.940053,0.371022 -0.564292,0.37195 -0.972252,0.97221 -1.114769,1.63286 -0.14746,0.68356 -0.01518,1.40803 0.279176,2.04234 0.29436,0.63431 0.742921,1.18611 1.237404,1.68057 0.988966,0.98891 2.187584,1.78791 2.976419,2.94278 0.641438,0.93908 0.974692,2.06326 1.630843,2.99212 0.437553,0.61941 1.020718,1.15729 1.27535,1.87163 0.222037,0.6229 0.158278,1.34159 -0.170557,1.91532 -0.328834,0.57374 -0.917031,0.99214 -1.567018,1.11389 -0.396803,0.0743 -0.812725,0.0414 -1.194057,-0.0912 -0.381331,-0.13253 -0.727356,-0.36396 -0.998129,-0.66339 -0.541547,-0.59886 -0.759202,-1.46761 -0.589641,-2.25701 0.157744,-0.73438 0.613618,-1.36218 0.973152,-2.02168 0.179767,-0.32975 0.338196,-0.67477 0.421543,-1.04097 0.08335,-0.36621 0.08848,-0.75656 -0.03356,-1.11175 -0.112008,-0.32599 -0.328707,-0.61213 -0.600155,-0.82457 -0.271447,-0.21245 -0.596006,-0.3527 -0.933026,-0.42504 -0.674042,-0.14469 -1.379999,-0.0204 -2.033462,0.19925 -0.653462,0.21966 -1.271457,0.53254 -1.914853,0.78015 -0.643396,0.2476 -1.328874,0.43131 -2.015941,0.3747 -0.527175,-0.0434 -1.036984,-0.22832 -1.494013,-0.49463 -0.457029,-0.26632 -0.863552,-0.6126 -1.233637,-0.99054 -0.740168,-0.75588 -1.339631,-1.63957 -2.075834,-2.39931 -1.324341,-1.36668 -3.071145,-2.2955 -4.92062,-2.74399 -1.849474,-0.4485 -3.797586,-0.42798 -5.664161,-0.057 -1.723145,0.34244 -3.39218,0.98426 -4.867712,1.93783 -0.78682,0.50849 -1.520601,1.10746 -2.127068,1.82149 -0.606467,0.71403 -1.083655,1.54639 -1.33069,2.45006 -0.247035,0.90367 -0.257171,1.88 0.03285,2.7708 0.290025,0.8908 0.889399,1.68866 1.69765,2.16234 0.568152,0.33297 1.231155,0.50198 1.889374,0.48162 0.658218,-0.0204 1.309512,-0.23 1.856005,-0.59744 0.546494,-0.36744 0.986409,-0.89147 1.253637,-1.49335 0.267228,-0.60187 0.3609,-1.27963 0.266938,-1.93143 -0.297613,-1.01244 -0.161606,-2.14466 0.367317,-3.05781 0.528924,-0.91316 1.443374,-1.59448 2.469674,-1.84008 1.0263,-0.24559 2.150114,-0.052 3.035103,0.52279 0.88499,0.5748 1.518794,1.52281 1.711727,2.5603 0.17136,0.92149 0.0059,1.87405 -0.254929,2.7743 -0.260855,0.90026 -0.616775,1.77246 -0.838877,2.68305 -0.222101,0.91059 -0.304875,1.88384 -0.01694,2.77581 0.143965,0.44598 0.380973,0.86504 0.710141,1.19862 0.329168,0.33357 0.75239,0.57894 1.211841,0.6713 0.376368,0.0757 0.769966,0.0482 1.139788,-0.0548 0.369821,-0.10301 0.716612,-0.27998 1.032401,-0.49828 0.631577,-0.4366 1.134664,-1.03044 1.635077,-1.61276 0.7383,-0.85914 1.507621,-1.72517 2.494724,-2.28091 0.493552,-0.27786 1.038447,-0.47315 1.60218,-0.52801 0.563733,-0.0549 1.146814,0.0351 1.649231,0.29661 0.617331,0.32131 1.083177,0.88306 1.405281,1.49998 0.322105,0.61691 0.513533,1.29223 0.697637,1.96338 0.184105,0.67115 0.364765,1.34833 0.667802,1.97484 0.303037,0.6265 0.740416,1.20683 1.336892,1.56537 0.433975,0.26086 0.938823,0.39498 1.44479,0.41451 0.505968,0.0195 1.013027,-0.0731 1.49064,-0.24124 0.955227,-0.33627 1.77946,-0.96265 2.543561,-1.62725 0.764101,-0.6646 1.489999,-1.38034 2.330976,-1.94452 0.840977,-0.56418 1.824854,-0.97504 2.836872,-0.93818 0.580186,0.0211 1.146035,0.18798 1.686721,0.39945 0.540686,0.21147 1.062683,0.46837 1.602943,0.68093 0.540261,0.21255 1.105245,0.38163 1.685293,0.40626 0.580048,0.0246 1.179723,-0.10487 1.650752,-0.44427 0.35667,-0.257 0.626408,-0.62509 0.795793,-1.03076 0.169386,-0.40568 0.241373,-0.84798 0.244008,-1.28759 0.0053,-0.87921 -0.259501,-1.73463 -0.510176,-2.57737 -0.250676,-0.84274 -0.492105,-1.70899 -0.438438,-2.58658 0.02683,-0.4388 0.129412,-0.87627 0.331701,-1.26658 0.202289,-0.39031 0.507376,-0.73192 0.89014,-0.94815 0.306761,-0.17329 0.657412,-0.26323 1.009362,-0.27948 0.351949,-0.0162 0.705259,0.0398 1.041671,0.14447 0.672825,0.20938 1.270126,0.60683 1.83676,1.0257 0.566634,0.41888 1.116981,0.86675 1.738569,1.19865 0.621588,0.33191 1.332208,0.54412 2.030283,0.44809 0.601013,-0.0827 1.145533,-0.38409 1.708497,-0.6102 0.281481,-0.11305 0.572341,-0.20852 0.87319,-0.24729 0.300849,-0.0388 0.613467,-0.0188 0.895558,0.0927 0.429569,0.16983 0.755976,0.53945 0.966994,0.95035 0.211018,0.41091 0.320078,0.86521 0.427104,1.31457 0.107026,0.44935 0.21563,0.90371 0.425859,1.31502 0.210229,0.41131 0.535453,0.78176 0.964367,0.95324 0.342003,0.13673 0.732101,0.13712 1.082849,0.0247 0.350748,-0.11241 0.662235,-0.33351 0.904084,-0.61131 0.483699,-0.55559 0.679676,-1.30981 0.728432,-2.04484 0.04876,-0.73503 -0.03418,-1.47212 -0.03357,-2.20876 6.09e-4,-0.73664 0.09257,-1.49675 0.458666,-2.13598 0.419341,-0.73221 1.186665,-1.24457 2.017251,-1.39327 0.830585,-0.14869 1.710979,0.0568 2.414868,0.52212 0.703888,0.46532 1.231099,1.17969 1.510649,1.97583 0.27955,0.79614 0.316618,1.66946 0.149779,2.49659 -0.333678,1.65426 -1.45643,3.0685 -2.814915,4.06972 -1.358484,1.00123 -2.947175,1.63705 -4.533819,2.21194 -4.5353,1.64326 -9.218827,2.87719 -13.97506,3.68187"
         style="opacity:1;fill:#ffffff;stroke:#000000;stroke-width:0.44832;stroke-linecap:butt;stroke-linejoin:miter;stroke-miterlimit:4;stroke-dasharray:none;stroke-opacity:1" />
      <text
         id="text932"
         y="71.990005"
         x="6.4044118"
         style="font-style:normal;font-weight:normal;font-size:6.35px;line-height:1.05;font-family:sans-serif;fill:#000000;fill-opacity:1;stroke:none;stroke-width:0.264583"
         xml:space="preserve"><tspan
           style="font-style:normal;font-variant:normal;font-weight:normal;font-stretch:normal;font-size:6.35px;font-family:'Helvetica Neue';-inkscape-font-specification:'Helvetica Neue';stroke-width:0.264583"
           y="71.990005"
           x="6.4044118"
           id="tspan930"
           sodipodi:role="line">100kb - 1Mb</tspan></text>
    </g>
    <g
       style="display:inline"
       inkscape:label="Cohesin"
       id="layer3"
       inkscape:groupmode="layer">
      <ellipse
         transform="matrix(0.94701173,-0.32119898,0.53783819,0.84304809,0,0)"
         ry="0.59673697"
         rx="2.1492758"
         cy="122.81433"
         cx="-16.975323"
         id="path913"
         style="opacity:1;fill:none;fill-opacity:0.175342;stroke:#1f77b4;stroke-width:0.254009;stroke-linecap:round;stroke-linejoin:round;stroke-miterlimit:4;stroke-dasharray:none;stroke-opacity:1;paint-order:markers fill stroke;stop-color:#000000" />
      <ellipse
         style="opacity:1;fill:none;fill-opacity:0.175342;stroke:#1f77b4;stroke-width:0.255399;stroke-linecap:round;stroke-linejoin:round;stroke-miterlimit:4;stroke-dasharray:none;stroke-opacity:1;paint-order:markers fill stroke;stop-color:#000000"
         id="ellipse928"
         cx="103.04205"
         cy="29.295876"
         rx="2.1661408"
         ry="0.59858984"
         transform="matrix(0.76271866,0.64673042,-0.40921726,0.91243698,0,0)" />
    </g>
  </g>
</svg>
