<?xml version="1.0" encoding="UTF-8" standalone="no"?>
<svg
   xmlns:dc="http://purl.org/dc/elements/1.1/"
   xmlns:cc="http://creativecommons.org/ns#"
   xmlns:rdf="http://www.w3.org/1999/02/22-rdf-syntax-ns#"
   xmlns:svg="http://www.w3.org/2000/svg"
   xmlns="http://www.w3.org/2000/svg"
   xmlns:sodipodi="http://sodipodi.sourceforge.net/DTD/sodipodi-0.dtd"
   xmlns:inkscape="http://www.inkscape.org/namespaces/inkscape"
   sodipodi:docname="dna_helix_templates.svg"
   inkscape:version="1.0 (4035a4fb49, 2020-05-01)"
   id="svg475"
   version="1.1"
   viewBox="0 0 16.175497 75.518761"
   height="75.518761mm"
   width="16.175497mm">
  <defs
     id="defs469" />
  <sodipodi:namedview
     inkscape:window-maximized="1"
     inkscape:window-y="-8"
     inkscape:window-x="-8"
     inkscape:window-height="745"
     inkscape:window-width="1366"
     fit-margin-bottom="0"
     fit-margin-right="0"
     fit-margin-left="0"
     fit-margin-top="0"
     showgrid="false"
     inkscape:document-rotation="0"
     inkscape:current-layer="layer1"
     inkscape:document-units="mm"
     inkscape:cy="274.90885"
     inkscape:cx="114.70993"
     inkscape:zoom="1.979899"
     inkscape:pageshadow="2"
     inkscape:pageopacity="0.0"
     borderopacity="1.0"
     bordercolor="#666666"
     pagecolor="#ffffff"
     id="base" />
  <metadata
     id="metadata472">
    <rdf:RDF>
      <cc:Work
         rdf:about="">
        <dc:format>image/svg+xml</dc:format>
        <dc:type
           rdf:resource="http://purl.org/dc/dcmitype/StillImage" />
        <dc:title></dc:title>
      </cc:Work>
    </rdf:RDF>
  </metadata>
  <g
     transform="translate(-66.40673,-81.091806)"
     id="layer1"
     inkscape:groupmode="layer"
     inkscape:label="Layer 1">
    <path
       sodipodi:nodetypes="cccscccccscccccc"
       d="m 70.078306,81.551729 c -0.50586,0.86563 -1.00809,2.92383 -1.51395,5.13638 m -0.98578,0 c 0.66666,-2.91587 1.33332,-5.56892 1.99998,-5.56892 0.66666,0 1.33332,2.65305 1.99998,5.56892 0.66669,2.915901 1.33335,5.56886 2.00001,5.56886 m 0.49409,-0.449721 c 0.50196,-0.877149 1.50588,-5.119139 1.50588,-5.119139 m 0.98579,0 c 0,0 -1.33332,5.56886 -1.99998,5.56886 -0.66666,0 -1.33332,-2.652959 -2.00001,-5.56886 -0.66666,-2.91587 -1.33332,-5.56892 -1.99998,-5.56892 m -0.98578,0 h 0.98578 m 3.01421,11.137769 h 0.98578"
       style="fill:none;stroke:#000000;stroke-width:0.0547656;stroke-opacity:1"
       id="path1455" />
    <path
       id="path1455-0"
       style="fill:none;stroke:#000000;stroke-width:0.0547658;stroke-opacity:1"
       d="m 72.944626,81.551729 c -0.50586,0.86563 -1.00809,2.92383 -1.51395,5.13638 m -0.98578,0 c 0.66666,-2.91587 1.33332,-5.56892 1.99998,-5.56892 0.66666,0 1.33332,2.65305 1.99998,5.56892 0.66669,2.915901 1.33335,5.56886 2.00001,5.56886 m 0.49409,-0.449721 c 0.50196,-0.877149 1.50589,-5.119139 1.50589,-5.119139 m 0.98578,0 c 0,0 -1.33332,5.56886 -1.99998,5.56886 -0.66666,0 -1.33332,-2.652959 -2.00001,-5.56886 -0.66666,-2.91587 -1.33332,-5.56892 -1.99998,-5.56892 m -0.98578,0 h 0.98578 m 3.01421,11.137769 h 0.98578"
       sodipodi:nodetypes="cccscccccscccccc" />
    <path
       sodipodi:nodetypes="cccccccsscssccccsssscccccccccsssscccccccccsscssccccc"
       d="m 73.588967,97.587901 c -0.31741,0.54315 -0.633389,1.55584 -0.949741,2.781579 m -0.490738,2.03456 c -0.0245,0.10631 -0.049,0.21309 -0.0735,0.32024 m -0.985779,0 c 0.187891,-0.82179 0.37833,-1.62525 0.566222,-2.35178 m 0.493647,-1.706769 c 0.313369,-0.92416 0.626739,-1.51037 0.940109,-1.51037 0.16541,0 0.330819,0.16333 0.496232,0.45347 0.501247,0.87924 1.002498,2.923049 1.503748,5.115449 0.18364,0.8032 0.367282,1.58645 0.550921,2.29979 0.15295,0.59411 0.30589,1.13972 0.45883,1.608 0.330089,1.01067 0.66017,1.66107 0.990259,1.66107 m 0.49409,-0.44972 c 0.501971,-0.87715 1.50589,-5.11914 1.50589,-5.11914 m 0.985782,0 c 0,0 -1.33332,5.56886 -1.999981,5.56886 -0.165261,0 -0.33053,-0.16304 -0.4958,-0.4527 -0.32132,-0.56319 -0.642641,-1.60504 -0.963969,-2.85796 -0.155551,-0.60651 -0.311103,-1.26248 -0.466651,-1.93755 -0.0245,-0.10645 -0.0491,-0.21337 -0.0736,-0.32065 -0.66666,-2.915879 -1.33332,-5.568919 -1.99998,-5.568919 m -0.985782,0 h 0.985782 m 3.01421,11.137769 h 0.98578 m -7.35234,-10.705229 c -0.505862,0.86563 -1.008091,2.923829 -1.513951,5.136379 m -0.985779,0 c 0.66666,-2.915869 1.33332,-5.568919 1.99998,-5.568919 0.165388,0 0.330779,0.16329 0.496171,0.45338 0.312888,0.54878 0.625779,1.55134 0.938659,2.760569 0.163568,0.63216 0.327139,1.3208 0.49071,2.03062 0.02479,0.10767 0.0496,0.21583 0.0744,0.32435 0.66669,2.9159 1.33335,5.56886 2.00001,5.56886 m 0.494091,-0.44972 c 0.24579,-0.4295 0.611928,-1.66577 0.921628,-2.81575 m 0.50837,-1.9884 c 0.0483,-0.19845 0.0759,-0.31499 0.0759,-0.31499 m 0.98578,0 c 0,0 -0.253931,1.0606 -0.595569,2.25609 m -0.514522,1.65562 c -0.32076,0.92936 -0.648888,1.65715 -0.889889,1.65715 -0.165579,0 -0.331161,-0.16366 -0.49675,-0.45437 -0.50107,-0.87971 -1.002159,-2.92283 -1.503259,-5.11449 -0.18769,-0.82091 -0.380492,-1.6261 -0.568171,-2.35201 -0.165309,-0.639339 -0.329999,-1.220539 -0.494498,-1.707579 -0.312161,-0.92419 -0.623642,-1.50933 -0.937311,-1.50933 m -0.985782,0 h 0.985782 m 3.01421,11.137769 h 0.98578"
       style="fill:none;stroke:#000000;stroke-width:0.0547658;stroke-opacity:1"
       id="path1455-0-4" />
    <path
       id="path1455-9"
       style="fill:#ff9896;stroke:#d62728;stroke-width:0.0628139;stroke-opacity:1"
       d="m 66.436806,133.87061 c 0.876997,-2.91587 1.764329,-5.61569 2.641326,-5.61569 0.24923,0.003 0.445386,0.211 0.64399,0.44598 -0.665463,0.86563 -1.312715,2.95716 -1.978179,5.16971 m 10.533308,-0.14031 c 0,0 -1.764332,5.6624 -2.641328,5.6624 -0.278683,-0.0136 -0.482192,-0.23681 -0.645789,-0.44972 0.660333,-0.87715 1.980999,-5.21268 1.980999,-5.21268 m -3.965207,0.0935 c -0.876997,-2.91587 -1.753994,-5.56892 -2.630991,-5.56892 h -1.29732 c 0.87648,0 1.754512,2.65305 2.631509,5.56892 0.877036,2.9159 1.754033,5.56886 2.63103,5.56885 l 1.296803,1e-5 c -0.876997,0 -1.753994,-2.65296 -2.631031,-5.56886 z"
       sodipodi:nodetypes="ccccccccccccccc" />
    <path
       sodipodi:nodetypes="cccccccccccccccccccc"
       d="m 69.860344,133.91738 c 0.309599,-1.02936 0.610254,-2.10928 0.92152,-2.96798 0.231997,0.65566 0.460572,1.30485 0.656772,1.99104 -0.08874,0.28844 -0.181849,0.68001 -0.271155,0.97694 m 0.265259,-4.5308 c 0.355019,-0.70385 0.715912,-1.13166 1.06893,-1.13166 0.24923,0.003 0.445386,0.211 0.64399,0.44598 -0.357817,0.46545 -0.709336,1.26973 -1.062286,2.25977 -0.193731,-0.53158 -0.396085,-1.04998 -0.650634,-1.57409 z m 10.268047,4.34372 c 0,0 -1.764329,5.6624 -2.641325,5.6624 -0.278683,-0.0136 -0.482192,-0.23681 -0.645789,-0.44972 0.660334,-0.87715 1.980999,-5.21268 1.980999,-5.21268 m -3.965208,0.0935 c -0.876997,-2.91587 -1.753994,-5.56892 -2.630991,-5.56892 h -1.29732 c 0.87648,0 1.754512,2.65305 2.631508,5.56892 0.877037,2.9159 1.754035,5.56886 2.631031,5.56885 l 1.296802,1e-5 c -0.876996,0 -1.753991,-2.65296 -2.63103,-5.56886 z"
       style="opacity:1;fill:#ff9896;stroke:#d62728;stroke-width:0.0629999;stroke-miterlimit:4;stroke-dasharray:none;stroke-opacity:1"
       id="path1455-9-9" />
    <path
       sodipodi:nodetypes="ccccccccccccccc"
       d="m 67.980606,118.61029 c 0.876997,-2.91587 1.764329,-5.56892 2.641327,-5.56892 0.249229,0.003 0.445385,0.211 0.64399,0.44598 -0.665463,0.86563 -1.312716,2.91039 -1.97818,5.12294 m 10.533307,0 c 0,0 -1.76433,5.56886 -2.641326,5.56886 -0.278683,-0.0136 -0.482192,-0.23681 -0.64579,-0.44972 0.660334,-0.87715 1.980999,-5.11914 1.980999,-5.11914 m -3.965207,0 c -0.876997,-2.91587 -1.753993,-5.56892 -2.630991,-5.56892 h -1.297319 c 0.87648,0 1.754511,2.65305 2.631508,5.56892 0.877036,2.9159 1.754034,5.56886 2.631031,5.56885 l 1.296803,1e-5 c -0.876998,0 -1.753994,-2.65296 -2.631032,-5.56886 z"
       style="fill:#ff9896;stroke:#d62728;stroke-width:0.0628139;stroke-opacity:1"
       id="path1455-9-2" />
    <path
       id="path1455-9-9-5"
       style="opacity:1;fill:#ff9896;stroke:#d62728;stroke-width:0.0629999;stroke-miterlimit:4;stroke-dasharray:none;stroke-opacity:1"
       d="m 70.711703,151.10375 c 0.3096,-1.02936 0.61026,-2.10928 0.92152,-2.96798 0.232,0.65566 0.46058,1.30485 0.65677,1.99104 -0.0887,0.28844 -0.18184,0.68001 -0.27115,0.97694 m 0.26526,-4.5308 c 0.35502,-0.70385 0.71591,-1.13166 1.06893,-1.13166 0.24923,0.003 0.44538,0.211 0.64399,0.44598 -0.35782,0.46545 -0.70934,1.26973 -1.06229,2.25977 -0.19373,-0.53158 -0.39608,-1.04998 -0.65063,-1.57409 z m 10.26805,4.34372 c 0,0 -1.76433,5.6624 -2.64133,5.6624 -0.27868,-0.0136 -0.48219,-0.23681 -0.6458,-0.44972 0.66035,-0.87715 1.98101,-5.21268 1.98101,-5.21268 m -3.9652,0.0935 c -0.90977,-2.90581 -1.75401,-5.56892 -2.631,-5.56892 h -1.29732 c 0.87648,0 1.75452,2.65305 2.63151,5.56892 0.87704,2.9159 1.75404,5.56886 2.63103,5.56885 l 1.29681,10e-6 c -0.87633,-10e-5 -1.71964,-2.65787 -2.63103,-5.56886 z m -9.99267,0.0468 c 0.877,-2.91587 1.76433,-5.61569 2.64133,-5.61569 0.24923,0.003 0.44539,0.211 0.64399,0.44598 -0.66546,0.86563 -1.31272,2.95716 -1.97818,5.16971 m 10.53331,-0.14031 c 0,0 -0.42237,1.38916 -0.96755,2.79453 -0.23032,-0.64674 -0.4135,-1.24235 -0.62348,-1.88508 0.17621,-0.54623 0.28492,-0.90945 0.28492,-0.90945 m -0.34425,4.37034 c -0.36292,0.74937 -0.71946,1.29206 -0.99096,1.29206 -0.27869,-0.0136 -0.4822,-0.23681 -0.64579,-0.44972 0.27416,-0.36418 0.66215,-1.32452 1.02219,-2.32321 m -3.00641,-2.79597 c -0.87699,-2.91587 -1.75399,-5.56892 -2.63099,-5.56892 h -1.29732 c 0.87648,0 1.75451,2.65305 2.63151,5.56892 0.87704,2.9159 1.75403,5.56886 2.63104,5.56885 l 1.2968,1e-5 c -0.877,0 -1.754,-2.65296 -2.63104,-5.56886 z"
       sodipodi:nodetypes="cccccccccccccssccscsccccccccccccsscsscs" />
  </g>
</svg>
